<svg id="Layer_5" enable-background="new 0 0 64 64" height="512" viewBox="0 0 64 64" width="512" xmlns="http://www.w3.org/2000/svg"><g><path d="m44 55h-16c-.475 0-.919.121-1.319.319.198-.4.319-.844.319-1.319v-2c0-.771-.301-1.468-.78-2 .48-.532.78-1.229.78-2v-2c0-1.654-1.346-3-3-3h-.549c2.081-1.197 3.846-2.875 5.146-4.887 3.776 3.148 8.481 4.887 13.403 4.887 11.58 0 21-9.421 21-21 0-11.58-9.42-21-21-21-9.472 0-17.581 6.189-20.153 15.187-1.798-.764-3.774-1.187-5.847-1.187-8.271 0-15 6.729-15 15 0 5.558 3.046 10.409 7.549 13h-.549c-1.654 0-3 1.346-3 3v2c0 .771.301 1.468.78 2-.479.532-.78 1.229-.78 2v2c0 .771.301 1.468.78 2-.479.532-.78 1.229-.78 2v2c0 1.654 1.346 3 3 3h16c.771 0 1.468-.301 2-.78.532.48 1.229.78 2 .78h16c1.654 0 3-1.346 3-3v-2c0-1.654-1.346-3-3-3zm-36 0c-.551 0-1-.448-1-1v-2c0-.552.449-1 1-1h1v2h2v-2h2v2h2v-2h2v2h2v-2h2v2h2v-2h1c.551 0 1 .448 1 1v2c0 .552-.449 1-1 1zm34-52c10.477 0 19 8.523 19 19s-8.523 19-19 19c-4.581 0-8.955-1.665-12.418-4.674.9-1.925 1.418-4.064 1.418-6.326 0-5.469-2.952-10.25-7.337-12.871 2.202-8.351 9.632-14.129 18.337-14.129zm-39 27c0-7.168 5.832-13 13-13s13 5.832 13 13-5.832 13-13 13-13-5.832-13-13zm4 16c0-.552.449-1 1-1h1v2h2v-2h2v2h2v-2h2v2h2v-2h2v2h2v-2h1c.551 0 1 .448 1 1v2c0 .552-.449 1-1 1h-16c-.551 0-1-.448-1-1zm17 15h-16c-.551 0-1-.448-1-1v-2c0-.552.449-1 1-1h1v2h2v-2h2v2h2v-2h2v2h2v-2h2v2h2v-2h1c.551 0 1 .448 1 1v2c0 .552-.449 1-1 1zm21-1c0 .552-.449 1-1 1h-16c-.551 0-1-.448-1-1v-2c0-.552.449-1 1-1h1v2h2v-2h2v2h2v-2h2v2h2v-2h2v2h2v-2h1c.551 0 1 .448 1 1z"/><path d="m17 27c.551 0 1 .449 1 1h2c0-1.654-1.346-3-3-3v-2h-2v2h-3v3c0 1.654 1.346 3 3 3h2c.551 0 1 .449 1 1v1h-3c-.551 0-1-.449-1-1h-2c0 1.654 1.346 3 3 3v2h2v-2h3v-3c0-1.654-1.346-3-3-3h-2c-.551 0-1-.449-1-1v-1z"/><path d="m16 19c-6.065 0-11 4.935-11 11s4.935 11 11 11 11-4.935 11-11-4.935-11-11-11zm0 20c-4.962 0-9-4.037-9-9 0-4.962 4.038-9 9-9s9 4.038 9 9c0 4.963-4.038 9-9 9z"/><path d="m38.25 7.472-.5-1.936c-5.194 1.337-9.499 5.109-11.514 10.089l1.854.75c1.779-4.395 5.577-7.723 10.16-8.903z"/><path d="m42 7v-2c-.711 0-1.426.044-2.124.132l.248 1.984c.617-.077 1.248-.116 1.876-.116z"/><path d="m49.5 34.994 1.002 1.73c5.242-3.032 8.498-8.674 8.498-14.724h-2c0 5.338-2.874 10.317-7.5 12.994z"/><path d="m45.75 36.527.499 1.938c.722-.187 1.437-.422 2.126-.701l-.751-1.854c-.606.245-1.237.453-1.874.617z"/><path d="m42 37v2c.711 0 1.426-.044 2.124-.132l-.248-1.984c-.617.077-1.248.116-1.876.116z"/><path d="m51 27c0-2.206-1.794-4-4-4s-4 1.794-4 4 1.794 4 4 4 4-1.794 4-4zm-6 0c0-1.103.897-2 2-2s2 .897 2 2-.897 2-2 2-2-.897-2-2z"/><path d="m33 17c0 2.206 1.794 4 4 4s4-1.794 4-4-1.794-4-4-4-4 1.794-4 4zm6 0c0 1.103-.897 2-2 2s-2-.897-2-2 .897-2 2-2 2 .897 2 2z"/><path d="m27.858 21h28.284v2h-28.284z" transform="matrix(.707 -.707 .707 .707 -3.255 36.142)"/><path d="m45 45h14v2h-14z"/><path d="m45 49h14v2h-14z"/><path d="m53 53h2v2h-2z"/><path d="m57 53h2v2h-2z"/><path d="m49 53h2v2h-2z"/></g></svg>